<?xml version="1.0" encoding="UTF-8"?>
<svg version="1.1" xmlns="http://www.w3.org/2000/svg" width="64" height="64">
<path d="M0 0 C21.12 0 42.24 0 64 0 C64 21.12 64 42.24 64 64 C42.88 64 21.76 64 0 64 C0 42.88 0 21.76 0 0 Z " fill="#3591DE" transform="translate(0,0)"/>
<path d="M0 0 C1.33335272 3.35970816 1.6189668 6.73082521 1.9375 10.3125 C2.04900391 11.25029297 2.16050781 12.18808594 2.27539062 13.15429688 C2.80056525 17.78300986 3.13279989 22.33638025 3 27 C1.7934375 27.3403125 1.7934375 27.3403125 0.5625 27.6875 C-0.283125 28.120625 -1.12875 28.55375 -2 29 C-2.83492354 31.42459787 -2.83492354 31.42459787 -3 34 C-3.33 34.99 -3.66 35.98 -4 37 C-3.95875 37.825 -3.9175 38.65 -3.875 39.5 C-4 42 -4 42 -5.21484375 43.61328125 C-7.43833104 45.34049786 -8.90125841 45.48559844 -11.6875 45.6875 C-12.89986328 45.78611328 -12.89986328 45.78611328 -14.13671875 45.88671875 C-14.75160156 45.92410156 -15.36648437 45.96148437 -16 46 C-16 44.02 -16 42.04 -16 40 C-16.66 40 -17.32 40 -18 40 C-18.33 39.34 -18.66 38.68 -19 38 C-19.309375 39.134375 -19.61875 40.26875 -19.9375 41.4375 C-21 45 -21 45 -22 46 C-25.48497993 46.38721999 -27.37636806 46.39387281 -30.375 44.5 C-32.73613198 40.86748926 -32.2854378 38.28156703 -32 34 C-32.66 34 -33.32 34 -34 34 C-34.25417629 30.5430244 -34.47407622 27.08471174 -34.6875 23.625 C-34.76033203 22.64015625 -34.83316406 21.6553125 -34.90820312 20.640625 C-34.96298828 19.69960938 -35.01777344 18.75859375 -35.07421875 17.7890625 C-35.13182373 16.91975098 -35.18942871 16.05043945 -35.2487793 15.15478516 C-35.16668213 14.44370605 -35.08458496 13.73262695 -35 13 C-32 11 -32 11 -28 11 C-28.268125 10.113125 -28.53625 9.22625 -28.8125 8.3125 C-29 5 -29 5 -26.75 2.25 C-19.07836668 -4.0267909 -8.65080354 -5.52718398 0 0 Z " fill="#0E1E54" transform="translate(47,9)"/>
<path d="M0 0 C7.64460562 5.9480755 7.64460562 5.9480755 9 11 C9.37125 12.258125 9.7425 13.51625 10.125 14.8125 C10.41375 15.864375 10.7025 16.91625 11 18 C14.40057991 16.98901678 15.74388504 16.38417244 17.75 13.375 C18.1625 12.59125 18.575 11.8075 19 11 C19.33 11 19.66 11 20 11 C20 14.63 20 18.26 20 22 C-1.12 22 -22.24 22 -44 22 C-44 18.04 -44 14.08 -44 10 C-43.01 11.32 -42.02 12.64 -41 14 C-37.90754997 16.46225016 -37.90754997 16.46225016 -33 16 C-32.67 12.37 -32.34 8.74 -32 5 C-31.01 5 -30.02 5 -29 5 C-28.566875 6.175625 -28.566875 6.175625 -28.125 7.375 C-27.15087746 10.09671632 -27.15087746 10.09671632 -25 12 C-21.91652174 12.16681109 -21.91652174 12.16681109 -19 12 C-18.01 9.36 -17.02 6.72 -16 4 C-15.67 4.99 -15.34 5.98 -15 7 C-14.34 7 -13.68 7 -13 7 C-13 8.98 -13 10.96 -13 13 C-11.53984709 12.71758359 -10.08190207 12.42373386 -8.625 12.125 C-7.40683594 11.88136719 -7.40683594 11.88136719 -6.1640625 11.6328125 C-3.81326077 11.13341068 -3.81326077 11.13341068 -2 9 C-2 7.845 -2 6.69 -2 5.5 C-2 2 -2 2 0 0 Z " fill="#5373BB" transform="translate(44,42)"/>
<path d="M0 0 C1.33335272 3.35970816 1.6189668 6.73082521 1.9375 10.3125 C2.04900391 11.25029297 2.16050781 12.18808594 2.27539062 13.15429688 C2.80056525 17.78300986 3.13279989 22.33638025 3 27 C1.7934375 27.3403125 1.7934375 27.3403125 0.5625 27.6875 C-0.283125 28.120625 -1.12875 28.55375 -2 29 C-2.83492354 31.42459787 -2.83492354 31.42459787 -3 34 C-3.33 34.99 -3.66 35.98 -4 37 C-4.03874921 38.66621616 -4.0450286 40.33394172 -4 42 C-6.34075925 38.48886112 -6.70663502 36.1804509 -7 32 C-6.35057252 30.65818549 -5.68279487 29.32514655 -5 28 C-4.55374182 25.88421181 -4.55374182 25.88421181 -4.3671875 23.671875 C-4.28339844 22.87265625 -4.19960938 22.0734375 -4.11328125 21.25 C-3.99533203 20.0125 -3.99533203 20.0125 -3.875 18.75 C-3.78863281 17.90953125 -3.70226562 17.0690625 -3.61328125 16.203125 C-3.40188278 14.13611777 -3.20000538 12.06814072 -3 10 C-3.99 10 -4.98 10 -6 10 C-6 9.34 -6 8.68 -6 8 C-6.66 8 -7.32 8 -8 8 C-8 8.66 -8 9.32 -8 10 C-10.97 9.505 -10.97 9.505 -14 9 C-14.33 10.32 -14.66 11.64 -15 13 C-15.60328125 12.94199219 -16.2065625 12.88398438 -16.828125 12.82421875 C-22.10878169 12.47512375 -22.10878169 12.47512375 -26.5625 15.0625 C-28.32751723 18.66927433 -28.13325622 21.00231346 -28 25 C-28.53243176 28.03486104 -29.24171655 31.01425892 -30 34 C-29.34 34 -28.68 34 -28 34 C-27.4254048 37.73486879 -27 41.21293268 -27 45 C-25.35 45 -23.7 45 -22 45 C-22 45.33 -22 45.66 -22 46 C-25.45669582 46.31424507 -27.39901677 46.37956836 -30.375 44.5 C-32.73613198 40.86748926 -32.2854378 38.28156703 -32 34 C-32.66 34 -33.32 34 -34 34 C-34.25417629 30.5430244 -34.47407622 27.08471174 -34.6875 23.625 C-34.76033203 22.64015625 -34.83316406 21.6553125 -34.90820312 20.640625 C-34.96298828 19.69960938 -35.01777344 18.75859375 -35.07421875 17.7890625 C-35.13182373 16.91975098 -35.18942871 16.05043945 -35.2487793 15.15478516 C-35.16668213 14.44370605 -35.08458496 13.73262695 -35 13 C-32 11 -32 11 -28 11 C-28.268125 10.113125 -28.53625 9.22625 -28.8125 8.3125 C-29 5 -29 5 -26.75 2.25 C-19.07836668 -4.0267909 -8.65080354 -5.52718398 0 0 Z " fill="#1D337B" transform="translate(47,9)"/>
<path d="M0 0 C0.09908722 6.1563653 0.17157253 12.3122635 0.21972656 18.46923828 C0.23980659 20.56241953 0.2670764 22.65554492 0.30175781 24.74853516 C0.35043434 27.76218469 0.37300512 30.77509073 0.390625 33.7890625 C0.41127014 34.72054108 0.43191528 35.65201965 0.45318604 36.61172485 C0.45516721 42.38532339 -0.14780127 45.60912409 -4 50 C-6.75 51.375 -6.75 51.375 -9 52 C-12.5335416 48.4664584 -12.89052783 43.27154756 -13.125 38.40625 C-13.125 36.27042687 -13.06776977 34.13474769 -13 32 C-12.01 31.67 -11.02 31.34 -10 31 C-10.17917969 30.39414062 -10.35835937 29.78828125 -10.54296875 29.1640625 C-12.29461699 22.26363006 -11.60382508 17.57955801 -9 11 C-9.66 10.67 -10.32 10.34 -11 10 C-10.67 9.34 -10.34 8.68 -10 8 C-10 6.68 -10 5.36 -10 4 C-10.66 4 -11.32 4 -12 4 C-12 3.01 -12 2.02 -12 1 C-8.01897848 -0.32700717 -4.15010389 -0.03374068 0 0 Z " fill="#64BDF5" transform="translate(64,9)"/>
<path d="M0 0 C1.33335272 3.35970816 1.6189668 6.73082521 1.9375 10.3125 C2.04900391 11.25029297 2.16050781 12.18808594 2.27539062 13.15429688 C2.80056525 17.78300986 3.13279989 22.33638025 3 27 C1.7934375 27.3403125 1.7934375 27.3403125 0.5625 27.6875 C-0.283125 28.120625 -1.12875 28.55375 -2 29 C-2.83492354 31.42459787 -2.83492354 31.42459787 -3 34 C-3.33 34.99 -3.66 35.98 -4 37 C-4.03874921 38.66621616 -4.0450286 40.33394172 -4 42 C-6.34075925 38.48886112 -6.70663502 36.1804509 -7 32 C-6.35057252 30.65818549 -5.68279487 29.32514655 -5 28 C-4.55374182 25.88421181 -4.55374182 25.88421181 -4.3671875 23.671875 C-4.28339844 22.87265625 -4.19960938 22.0734375 -4.11328125 21.25 C-3.99533203 20.0125 -3.99533203 20.0125 -3.875 18.75 C-3.78863281 17.90953125 -3.70226562 17.0690625 -3.61328125 16.203125 C-3.40188278 14.13611777 -3.20000538 12.06814072 -3 10 C-3.66 10 -4.32 10 -5 10 C-4.67 8.35 -4.34 6.7 -4 5 C-5.98 5.99 -5.98 5.99 -8 7 C-7.34 5.35 -6.68 3.7 -6 2 C-6.515625 2.350625 -7.03125 2.70125 -7.5625 3.0625 C-11.49306686 4.57425648 -15.16885542 3.53857194 -19.125 2.375 C-21.61043845 1.87791231 -23.5657999 2.39144997 -26 3 C-26 5.64 -26 8.28 -26 11 C-26.66 11 -27.32 11 -28 11 C-28.8125 8.3125 -28.8125 8.3125 -29 5 C-21.84253316 -3.74801502 -9.7510119 -6.2301307 0 0 Z " fill="#2A4696" transform="translate(47,9)"/>
<path d="M0 0 C3.96 0 7.92 0 12 0 C12 2.97 12 5.94 12 9 C6.06 9.495 6.06 9.495 0 10 C0 10.99 0 11.98 0 13 C0.66 13 1.32 13 2 13 C3.28979667 19.12653419 2.3729583 23.96398088 1.33984375 30.12890625 C1.22769531 31.07636719 1.11554687 32.02382813 1 33 C1.33 33.33 1.66 33.66 2 34 C2.1875 36.9375 2.1875 36.9375 2 40 C1.34 40.66 0.68 41.32 0 42 C-0.39764263 43.98821313 -0.73775349 45.98944339 -1 48 C-4 46.375 -4 46.375 -7 44 C-7.375 40.75 -7.375 40.75 -7 38 C-5.35 37.34 -3.7 36.68 -2 36 C-2.30872329 33.39533457 -2.62181723 30.79132309 -2.9375 28.1875 C-3.06801758 27.08051758 -3.06801758 27.08051758 -3.20117188 25.95117188 C-3.58216546 22.83266879 -4.00369374 19.98891878 -5 17 C-5.12781786 14.32605036 -5.04391871 11.67904143 -5 9 C-5.66 8.67 -6.32 8.34 -7 8 C-3.04 8 0.92 8 5 8 C5 7.34 5 6.68 5 6 C4.34 6 3.68 6 3 6 C1.515 3.03 1.515 3.03 0 0 Z " fill="#4FA5E9" transform="translate(52,0)"/>
<path d="M0 0 C4.78712933 -0.09886835 9.57366475 -0.17146623 14.36157227 -0.21972656 C15.99025829 -0.23984381 17.61887208 -0.26714137 19.24731445 -0.30175781 C21.58823458 -0.35027429 23.92820018 -0.37296632 26.26953125 -0.390625 C27.36186821 -0.42159271 27.36186821 -0.42159271 28.47627258 -0.45318604 C31.80359218 -0.45466332 33.52489742 -0.455041 35.9831543 1.89941406 C37 4 37 4 37 6 C37.66 6 38.32 6 39 6 C39 6.66 39 7.32 39 8 C36.72923158 8.02699725 34.45837179 8.04639453 32.1875 8.0625 C30.92292969 8.07410156 29.65835938 8.08570313 28.35546875 8.09765625 C25 8 25 8 22 7 C15.77665824 6.49027868 10.64178471 7.17910764 5 10 C3.00039988 10.039992 0.99952758 10.04346799 -1 10 C-0.67 6.7 -0.34 3.4 0 0 Z " fill="#3A95E1" transform="translate(18,0)"/>
<path d="M0 0 C5.94 0 11.88 0 18 0 C18 7 18 7 17 10 C18.32 10.33 19.64 10.66 21 11 C20.01 12.485 20.01 12.485 19 14 C18.83300768 17.12521833 18.83300768 17.12521833 19 20 C17.68 20 16.36 20 15 20 C15 17.36 15 14.72 15 12 C14.01 12.495 14.01 12.495 13 13 C8.66396021 13.1393329 4.33919329 13.04254111 0 13 C0 8.71 0 4.42 0 0 Z " fill="#2B7DD4" transform="translate(0,0)"/>
<path d="M0 0 C0.99 0.33 1.98 0.66 3 1 C3 1.66 3 2.32 3 3 C3.78375 3.144375 4.5675 3.28875 5.375 3.4375 C8 4 8 4 10 5 C10 5.66 10 6.32 10 7 C8.02 7.99 8.02 7.99 6 9 C7.65 9.33 9.3 9.66 11 10 C11 13.63 11 17.26 11 21 C6 22 6 22 3.8125 21.375 C1.32750026 19.48982779 0.92023636 17.98574505 0 15 C-0.13710218 12.35392791 -0.19062972 9.82530987 -0.125 7.1875 C-0.11597656 6.49462891 -0.10695312 5.80175781 -0.09765625 5.08789062 C-0.07426157 3.39177605 -0.03839641 1.69584129 0 0 Z " fill="#41B4F0" transform="translate(0,37)"/>
<path d="M0 0 C4 4.5 4 4.5 4 9 C4.99 9 5.98 9 7 9 C7.6697478 22.99028732 6.48252714 35.78587482 -1 48 C-1.33 48 -1.66 48 -2 48 C-1.60185567 43.62041236 -1.0456413 39.90870898 0.5625 35.8125 C3.63025441 27.06037713 2.22021779 17.65511522 0.4375 8.75390625 C-0.03255122 5.79510167 -0.07047933 2.99096639 0 0 Z " fill="#77CFFB" transform="translate(57,10)"/>
<path d="M0 0 C0 1.32 0 2.64 0 4 C0.99 4 1.98 4 3 4 C3 2.35 3 0.7 3 -1 C3.66 -1 4.32 -1 5 -1 C5 3.29 5 7.58 5 12 C5.66 12 6.32 12 7 12 C7.33 12.99 7.66 13.98 8 15 C6.68 15.33 5.36 15.66 4 16 C4 18.97 4 21.94 4 25 C1.91045968 20.82091936 1.83447381 20.19589427 3 16 C1.35 16.33 -0.3 16.66 -2 17 C-1.67 15.68 -1.34 14.36 -1 13 C-0.01 13 0.98 13 2 13 C2 12.34 2 11.68 2 11 C-0.31 10.34 -2.62 9.68 -5 9 C-5 8.34 -5 7.68 -5 7 C-5.99 6.67 -6.98 6.34 -8 6 C-8 4.02 -8 2.04 -8 0 C-4.94736336 -0.98120464 -3.05263664 -0.98120464 0 0 Z " fill="#3893DE" transform="translate(8,31)"/>
<path d="M0 0 C4.29 0 8.58 0 13 0 C12.34 0.66 11.68 1.32 11 2 C10.54188325 3.97235333 10.54188325 3.97235333 10.375 6.125 C10.25125 7.40375 10.1275 8.6825 10 10 C8.68 10 7.36 10 6 10 C5.7525 10.639375 5.505 11.27875 5.25 11.9375 C4 14 4 14 0 15 C0 10.05 0 5.1 0 0 Z " fill="#348CDC" transform="translate(0,13)"/>
<path d="M0 0 C0.66 0 1.32 0 2 0 C2.125 6.625 2.125 6.625 1 10 C2.32 10.33 3.64 10.66 5 11 C4.01 12.485 4.01 12.485 3 14 C2.83300768 17.12521833 2.83300768 17.12521833 3 20 C1.68 20 0.36 20 -1 20 C-1 17.36 -1 14.72 -1 12 C-1.99 12.495 -1.99 12.495 -3 13 C-5.2072923 13.07092842 -7.41667452 13.08415025 -9.625 13.0625 C-10.81351563 13.05347656 -12.00203125 13.04445313 -13.2265625 13.03515625 C-14.14179688 13.02355469 -15.05703125 13.01195312 -16 13 C-15.25531915 5.25531915 -15.25531915 5.25531915 -12 2 C-11.34 2 -10.68 2 -10 2 C-10 2.99 -10 3.98 -10 5 C-10.66 5 -11.32 5 -12 5 C-11.01 6.485 -11.01 6.485 -10 8 C-9.34 7.67 -8.68 7.34 -8 7 C-8 7.99 -8 8.98 -8 10 C-5.36 10.33 -2.72 10.66 0 11 C0 7.37 0 3.74 0 0 Z " fill="#286DC3" transform="translate(16,0)"/>
<path d="M0 0 C0.598125 0.20625 1.19625 0.4125 1.8125 0.625 C0.8225 1.285 -0.1675 1.945 -1.1875 2.625 C-1.76743699 4.81954681 -1.76743699 4.81954681 -1.875 7.25 C-1.97361328 8.47589844 -1.97361328 8.47589844 -2.07421875 9.7265625 C-2.13029297 10.66628906 -2.13029297 10.66628906 -2.1875 11.625 C-1.5275 11.625 -0.8675 11.625 -0.1875 11.625 C-0.27128906 12.25148438 -0.35507812 12.87796875 -0.44140625 13.5234375 C-0.54324219 14.34070312 -0.64507813 15.15796875 -0.75 16 C-0.90662109 17.21816406 -0.90662109 17.21816406 -1.06640625 18.4609375 C-1.36987328 20.67399186 -1.36987328 20.67399186 -0.1875 22.625 C0.4725 22.625 1.1325 22.625 1.8125 22.625 C2.3870952 26.35986879 2.8125 29.83793268 2.8125 33.625 C4.4625 33.625 6.1125 33.625 7.8125 33.625 C7.8125 33.955 7.8125 34.285 7.8125 34.625 C4.35580418 34.93924507 2.41348323 35.00456836 -0.5625 33.125 C-2.92363198 29.49248926 -2.4729378 26.90656703 -2.1875 22.625 C-2.8475 22.625 -3.5075 22.625 -4.1875 22.625 C-4.44167629 19.1680244 -4.66157622 15.70971174 -4.875 12.25 C-4.94783203 11.26515625 -5.02066406 10.2803125 -5.09570312 9.265625 C-5.15048828 8.32460938 -5.20527344 7.38359375 -5.26171875 6.4140625 C-5.31932373 5.54475098 -5.37692871 4.67543945 -5.4362793 3.77978516 C-5.35418213 3.06870605 -5.27208496 2.35762695 -5.1875 1.625 C-2.1875 -0.375 -2.1875 -0.375 0 0 Z " fill="#1D3F89" transform="translate(17.1875,20.375)"/>
<path d="M0 0 C0.66 0 1.32 0 2 0 C1.67 1.65 1.34 3.3 1 5 C-0.32 4.67 -1.64 4.34 -3 4 C-3.33 5.32 -3.66 6.64 -4 8 C-4.60328125 7.94199219 -5.2065625 7.88398438 -5.828125 7.82421875 C-8.29740203 7.68482408 -10.54849545 7.65763471 -13 8 C-15.95569436 10.66012492 -17.41621688 13.05946397 -18 17 C-18.66 17 -19.32 17 -20 17 C-20.25 13.6875 -20.25 13.6875 -20 10 C-18.125 8.0625 -18.125 8.0625 -16 7 C-15.34 7 -14.68 7 -14 7 C-14 5.02 -14 3.04 -14 1 C-13.34 1 -12.68 1 -12 1 C-12.33 2.65 -12.66 4.3 -13 6 C-12.34 6 -11.68 6 -11 6 C-11 4.35 -11 2.7 -11 1 C-7.7 1.66 -4.4 2.32 -1 3 C-0.67 2.01 -0.34 1.02 0 0 Z " fill="#162B6E" transform="translate(36,14)"/>
<path d="M0 0 C0.33 0 0.66 0 1 0 C2.73212871 17.10477096 2.73212871 17.10477096 -1 26 C-1.97608217 28.92824652 -2.08226668 30.95613276 -2 34 C-4.34075925 30.48886112 -4.70663502 28.1804509 -5 24 C-4.34624073 22.66029069 -3.6786613 21.32726827 -3 20 C-2.56793028 17.80239425 -2.56793028 17.80239425 -2.40234375 15.48828125 C-2.32306641 14.64845703 -2.24378906 13.80863281 -2.16210938 12.94335938 C-2.08798828 12.07517578 -2.01386719 11.20699219 -1.9375 10.3125 C-1.78384131 8.57907755 -1.62649077 6.84597702 -1.46484375 5.11328125 C-1.36610962 3.96533081 -1.36610962 3.96533081 -1.26538086 2.79418945 C-1 1 -1 1 0 0 Z " fill="#223B82" transform="translate(45,17)"/>
<path d="M0 0 C1.76949095 -0.10815225 3.54087487 -0.18566083 5.3125 -0.25 C6.29863281 -0.29640625 7.28476562 -0.3428125 8.30078125 -0.390625 C11 -0 11 -0 12.85546875 1.890625 C14 4 14 4 14 6 C14.66 6 15.32 6 16 6 C16 6.66 16 7.32 16 8 C12.04 8 8.08 8 4 8 C4 7.34 4 6.68 4 6 C3.34 6 2.68 6 2 6 C1.34 4.02 0.68 2.04 0 0 Z " fill="#63C4F7" transform="translate(41,0)"/>
<path d="M0 0 C3.3 0.33 6.6 0.66 10 1 C10.33 2.32 10.66 3.64 11 5 C11.66 5.66 12.32 6.32 13 7 C12.05125 7.309375 11.1025 7.61875 10.125 7.9375 C7.13919592 8.87394742 7.13919592 8.87394742 5 10 C3.00039988 10.039992 0.99952758 10.04346799 -1 10 C-0.67 6.7 -0.34 3.4 0 0 Z " fill="#3192E0" transform="translate(18,0)"/>
<path d="M0 0 C0.33 0 0.66 0 1 0 C1.10852923 2.87602455 1.1875515 5.74790832 1.25 8.625 C1.30027344 9.83736328 1.30027344 9.83736328 1.3515625 11.07421875 C1.4406282 16.55175923 0.71724558 19.69015005 -3 24 C-5.75 25.375 -5.75 25.375 -8 26 C-7.07055234 23.13420303 -6.10860465 20.28842547 -5.046875 17.46875 C-2.86763604 11.67913008 -1.19433521 6.07120396 0 0 Z " fill="#4EB8E7" transform="translate(63,35)"/>
<path d="M0 0 C3.96 0 7.92 0 12 0 C12 2.97 12 5.94 12 9 C9.69 9 7.38 9 5 9 C5 8.01 5 7.02 5 6 C4.34 6 3.68 6 3 6 C2.01 4.02 1.02 2.04 0 0 Z " fill="#2D7EC3" transform="translate(52,0)"/>
<path d="M0 0 C3.25662889 4.88494333 2.45308005 10.28319578 2 16 C1.39897078 18.382128 0.63253483 20.57193975 -0.265625 22.85546875 C-1.51474414 26.5031624 -1.69606444 30.17041198 -2 34 C-2.99 34 -3.98 34 -5 34 C-5.33 31.03 -5.66 28.06 -6 25 C-5.01 24.67 -4.02 24.34 -3 24 C-1.46501327 17.68188497 -0.81209781 11.85182692 -1.02734375 5.34765625 C-1 3 -1 3 0 0 Z " fill="#6CC5F8" transform="translate(58,25)"/>
<path d="M0 0 C0.33 0 0.66 0 1 0 C2.22788903 9.14243465 2.5148089 16.71796419 -2 25 C-3.640625 26.80078125 -3.640625 26.80078125 -5 28 C-4.60202845 23.622313 -4.02703584 19.81422126 -2.5 15.6875 C-0.65713783 10.54546507 -0.29400769 5.423935 0 0 Z " fill="#76CFFB" transform="translate(60,30)"/>
<path d="M0 0 C0.66 0.33 1.32 0.66 2 1 C2.46837058 10.64062772 2.14772718 18.09349655 -2 27 C-2.84062397 23.90226756 -3.08935201 21.21667249 -3 18 C-2.01 17.67 -1.02 17.34 0 17 C-0.16757812 16.35933594 -0.33515625 15.71867187 -0.5078125 15.05859375 C-1.87363721 9.25816098 -2.18003568 5.57120229 0 0 Z " fill="#54AAEC" transform="translate(54,23)"/>
<path d="M0 0 C0.33 0 0.66 0 1 0 C1 3.63 1 7.26 1 11 C-1.97 11 -4.94 11 -8 11 C-8 10.01 -8 9.02 -8 8 C-6.00669158 6.65668346 -4.00615134 5.32405988 -2 4 C-0.61131484 1.89960669 -0.61131484 1.89960669 0 0 Z " fill="#328ECB" transform="translate(63,53)"/>
<path d="M0 0 C0.99 1.32 1.98 2.64 3 4 C6.22791555 6.1519437 7.28400809 6.20086443 11 6 C11 7.32 11 8.64 11 10 C7.37 10 3.74 10 0 10 C0 6.7 0 3.4 0 0 Z " fill="#3483D6" transform="translate(0,52)"/>
<path d="M0 0 C1.32 0 2.64 0 4 0 C4 1.65 4 3.3 4 5 C5.65 5 7.3 5 9 5 C8.814375 5.61875 8.62875 6.2375 8.4375 6.875 C7.76313824 9.04160178 7.76313824 9.04160178 9 11 C7.35 11.33 5.7 11.66 4 12 C4 10.68 4 9.36 4 8 C2.68 7.67 1.36 7.34 0 7 C0 4.69 0 2.38 0 0 Z " fill="#53D1FB" transform="translate(0,45)"/>
<path d="M0 0 C0.99 0 1.98 0 3 0 C3.02698422 2.43757413 3.04683099 4.87484915 3.0625 7.3125 C3.07087891 8.00279297 3.07925781 8.69308594 3.08789062 9.40429688 C3.10307906 12.5483025 3.00193327 14.99420019 2 18 C1.34 18 0.68 18 0 18 C0 12.06 0 6.12 0 0 Z " fill="#92DAFA" transform="translate(61,20)"/>
<path d="M0 0 C0.598125 0.20625 1.19625 0.4125 1.8125 0.625 C0.8225 1.285 -0.1675 1.945 -1.1875 2.625 C-1.76743699 4.81954681 -1.76743699 4.81954681 -1.875 7.25 C-1.97361328 8.47589844 -1.97361328 8.47589844 -2.07421875 9.7265625 C-2.13029297 10.66628906 -2.13029297 10.66628906 -2.1875 11.625 C-1.5275 11.625 -0.8675 11.625 -0.1875 11.625 C-0.5175 12.615 -0.8475 13.605 -1.1875 14.625 C-1.8475 14.625 -2.5075 14.625 -3.1875 14.625 C-3.5175 15.945 -3.8475 17.265 -4.1875 18.625 C-4.43553781 15.83382755 -4.66164334 13.04384926 -4.875 10.25 C-4.94783203 9.4559375 -5.02066406 8.661875 -5.09570312 7.84375 C-5.26171875 5.5390625 -5.26171875 5.5390625 -5.1875 1.625 C-2.1875 -0.375 -2.1875 -0.375 0 0 Z " fill="#1D4A9A" transform="translate(17.1875,20.375)"/>
<path d="M0 0 C1.65 0 3.3 0 5 0 C4.625 1.9375 4.625 1.9375 4 4 C3.01 4.495 3.01 4.495 2 5 C3.65 5 5.3 5 7 5 C7 5.66 7 6.32 7 7 C6.01 7 5.02 7 4 7 C4 8.65 4 10.3 4 12 C2.68 12 1.36 12 0 12 C0 8.04 0 4.08 0 0 Z " fill="#4395E1" transform="translate(0,13)"/>
<path d="M0 0 C0.33 0 0.66 0 1 0 C1 1.65 1 3.3 1 5 C1.99 4.67 2.98 4.34 4 4 C3.67 7.96 3.34 11.92 3 16 C1.68 16.33 0.36 16.66 -1 17 C-1.33 17.66 -1.66 18.32 -2 19 C-2.66 19 -3.32 19 -4 19 C-4 18.01 -4 17.02 -4 16 C-2.35 15.34 -0.7 14.68 1 14 C0.835 13.175 0.67 12.35 0.5 11.5 C-0.05896045 7.58727683 -0.06807187 3.94816827 0 0 Z " fill="#3A7FCE" transform="translate(49,22)"/>
<path d="M0 0 C3.45826342 -0.05789006 6.91640293 -0.09355821 10.375 -0.125 C11.35984375 -0.14175781 12.3446875 -0.15851562 13.359375 -0.17578125 C14.77089844 -0.18544922 14.77089844 -0.18544922 16.2109375 -0.1953125 C17.51490479 -0.21102295 17.51490479 -0.21102295 18.84521484 -0.22705078 C21 0 21 0 23 2 C23 3.32 23 4.64 23 6 C22.34 6 21.68 6 21 6 C21 5.34 21 4.68 21 4 C20.01 4 19.02 4 18 4 C18 3.34 18 2.68 18 2 C12.06 1.67 6.12 1.34 0 1 C0 0.67 0 0.34 0 0 Z " fill="#44A8EC" transform="translate(20,0)"/>
<path d="M0 0 C1.98 0 3.96 0 6 0 C6 3.3 6 6.6 6 10 C5.01 10 4.02 10 3 10 C0 3.375 0 3.375 0 0 Z " fill="#4AA1DA" transform="translate(58,9)"/>
<path d="M0 0 C2.64 0 5.28 0 8 0 C8.042721 1.66611905 8.04063832 3.33382885 8 5 C7.67 5.33 7.34 5.66 7 6 C7 6.66 7 7.32 7 8 C6.01 8 5.02 8 4 8 C4 7.34 4 6.68 4 6 C3.34 6 2.68 6 2 6 C1.34 4.02 0.68 2.04 0 0 Z " fill="#5DBFF6" transform="translate(41,0)"/>
<path d="M0 0 C1.98 0 3.96 0 6 0 C6 2.97 6 5.94 6 9 C3.69 9 1.38 9 -1 9 C-0.01 8.34 0.98 7.68 2 7 C1.34 4.69 0.68 2.38 0 0 Z " fill="#2965B0" transform="translate(58,0)"/>
<path d="M0 0 C0.66 0 1.32 0 2 0 C2 2.97 2 5.94 2 9 C0.68 9.33 -0.64 9.66 -2 10 C-2.33 7.69 -2.66 5.38 -3 3 C-2.01 2.67 -1.02 2.34 0 2 C0 1.34 0 0.68 0 0 Z " fill="#45ADEC" transform="translate(13,12)"/>
<path d="M0 0 C3.96 0 7.92 0 12 0 C12 0.33 12 0.66 12 1 C9.36 1.33 6.72 1.66 4 2 C4.20625 3.27875 4.4125 4.5575 4.625 5.875 C4.9765625 8.0546875 4.9765625 8.0546875 5 10 C4.34 10.66 3.68 11.32 3 12 C1.71682108 8.15046324 1.93356363 5.05261865 2 1 C1.34 0.67 0.68 0.34 0 0 Z " fill="#3E88D5" transform="translate(45,8)"/>
<path d="M0 0 C0.33 0 0.66 0 1 0 C1.68837568 9.67550265 1.68837568 9.67550265 -0.875 13.625 C-1.57625 14.40875 -2.2775 15.1925 -3 16 C-3.66 16 -4.32 16 -5 16 C-3.50723624 10.60308488 -1.80304155 5.30094216 0 0 Z " fill="#389ED7" transform="translate(63,43)"/>
<path d="M0 0 C0.99 0.33 1.98 0.66 3 1 C3.0270043 2.45823212 3.04639787 3.91660675 3.0625 5.375 C3.07410156 6.18710937 3.08570313 6.99921875 3.09765625 7.8359375 C3 10 3 10 2 12 C1.34 12 0.68 12 0 12 C0 8.04 0 4.08 0 0 Z " fill="#4492DC" transform="translate(13,50)"/>
<path d="M0 0 C0.33 0 0.66 0 1 0 C1.125 7.625 1.125 7.625 0 11 C-0.03874921 12.66621616 -0.0450286 14.33394172 0 16 C-2.37327851 12.44008224 -2.78356356 10.25658339 -3 6 C-1.5625 2.5625 -1.5625 2.5625 0 0 Z " fill="#172D6D" transform="translate(43,35)"/>
<path d="M0 0 C0.66 0 1.32 0 2 0 C1.91291331 1.45945288 1.80473093 2.91765868 1.6875 4.375 C1.62949219 5.18710937 1.57148437 5.99921875 1.51171875 6.8359375 C1 9 1 9 -2 11 C-2.95465783 8.83032311 -3.14401212 7.43671207 -2.3984375 5.17578125 C-1.64129615 3.4315257 -0.82390802 1.71372869 0 0 Z " fill="#61CAFA" transform="translate(55,40)"/>
<path d="M0 0 C0.66 0.33 1.32 0.66 2 1 C2.125 3.875 2.125 3.875 2 7 C1.34 7.66 0.68 8.32 0 9 C-0.6425235 11.06874034 -0.6425235 11.06874034 -1 13 C-1 12.01 -1 11.02 -1 10 C-1.66 10 -2.32 10 -3 10 C-3 8.35 -3 6.7 -3 5 C-2.01 5 -1.02 5 0 5 C0 3.35 0 1.7 0 0 Z " fill="#49A0E9" transform="translate(52,33)"/>
<path d="M0 0 C0.66 0 1.32 0 2 0 C2 2.64 2 5.28 2 8 C0.68 8 -0.64 8 -2 8 C-2 7.34 -2 6.68 -2 6 C-2.66 6 -3.32 6 -4 6 C-4.33 4.68 -4.66 3.36 -5 2 C-4.34 1.67 -3.68 1.34 -3 1 C-3 2.32 -3 3.64 -3 5 C-2.01 5 -1.02 5 0 5 C0 3.35 0 1.7 0 0 Z " fill="#318ADB" transform="translate(11,30)"/>
<path d="M0 0 C1.64666203 0.1135629 3.29236082 0.24117381 4.9375 0.375 C5.85402344 0.44460937 6.77054688 0.51421875 7.71484375 0.5859375 C8.84599609 0.79089844 8.84599609 0.79089844 10 1 C10.33 1.66 10.66 2.32 11 3 C10.34 3.66 9.68 4.32 9 5 C5.5 4.875 5.5 4.875 2 4 C0.78125 1.9453125 0.78125 1.9453125 0 0 Z " fill="#3086DA" transform="translate(18,0)"/>
<path d="M0 0 C0.99 0 1.98 0 3 0 C3.33 2.97 3.66 5.94 4 9 C2.02 9.99 2.02 9.99 0 11 C0 7.37 0 3.74 0 0 Z " fill="#2A4895" transform="translate(46,27)"/>
<path d="M0 0 C1.26026798 2.52053595 0.91874445 3.8542098 0.5625 6.625 C0.46066406 7.44226562 0.35882813 8.25953125 0.25390625 9.1015625 C0.17011719 9.72804688 0.08632813 10.35453125 0 11 C-0.99 11 -1.98 11 -3 11 C-3.33 8.03 -3.66 5.06 -4 2 C-2.68 1.34 -1.36 0.68 0 0 Z " fill="#66B6EE" transform="translate(56,48)"/>
<path d="M0 0 C0 0.99 0 1.98 0 3 C-1.32 3 -2.64 3 -4 3 C-4 5.64 -4 8.28 -4 11 C-4.66 11 -5.32 11 -6 11 C-6.8125 8.3125 -6.8125 8.3125 -7 5 C-2.97826087 0 -2.97826087 0 0 0 Z " fill="#2D55A5" transform="translate(25,9)"/>
<path d="M0 0 C1.65 0.33 3.3 0.66 5 1 C4.67 3.31 4.34 5.62 4 8 C3.34 8 2.68 8 2 8 C2.33 6.35 2.66 4.7 3 3 C2.34 3 1.68 3 1 3 C1 4.65 1 6.3 1 8 C-1 5 -1 5 -0.625 2.3125 C-0.41875 1.549375 -0.2125 0.78625 0 0 Z " fill="#233883" transform="translate(21,12)"/>
<path d="M0 0 C2 2 2 2 2.1953125 4.3828125 C2.17210937 5.28773437 2.14890625 6.19265625 2.125 7.125 C2.10695312 8.03507812 2.08890625 8.94515625 2.0703125 9.8828125 C2.03550781 10.93082031 2.03550781 10.93082031 2 12 C1.01 12 0.02 12 -1 12 C-0.67 8.04 -0.34 4.08 0 0 Z " fill="#5EB5F2" transform="translate(56,27)"/>
<path d="M0 0 C1.98 0.99 1.98 0.99 4 2 C4 2.99 4 3.98 4 5 C6.97 5.495 6.97 5.495 10 6 C7 8 7 8 3.8125 7.625 C2.884375 7.41875 1.95625 7.2125 1 7 C0.67 4.69 0.34 2.38 0 0 Z " fill="#48A8EA" transform="translate(1,51)"/>
<path d="M0 0 C1.32 0 2.64 0 4 0 C4 1.98 4 3.96 4 6 C2.68 6.33 1.36 6.66 0 7 C0 4.69 0 2.38 0 0 Z " fill="#51C2F5" transform="translate(0,45)"/>
<path d="M0 0 C0.33 0 0.66 0 1 0 C1 2.64 1 5.28 1 8 C-0.98 8 -2.96 8 -5 8 C-4.19185349 6.66402348 -3.37836819 5.331275 -2.5625 4 C-2.11003906 3.2575 -1.65757813 2.515 -1.19140625 1.75 C-0.79824219 1.1725 -0.40507813 0.595 0 0 Z " fill="#2676BA" transform="translate(63,56)"/>
<path d="M0 0 C5 6.36363636 5 6.36363636 5 9 C3.35 9 1.7 9 0 9 C0 6.03 0 3.06 0 0 Z " fill="#3993E1" transform="translate(0,52)"/>
<path d="M0 0 C2.475 0.495 2.475 0.495 5 1 C4.01 1.33 3.02 1.66 2 2 C2 5.3 2 8.6 2 12 C0 10 0 10 -0.1953125 7.6171875 C-0.17210937 6.71226563 -0.14890625 5.80734375 -0.125 4.875 C-0.10695312 3.96492188 -0.08890625 3.05484375 -0.0703125 2.1171875 C-0.04710937 1.41851563 -0.02390625 0.71984375 0 0 Z " fill="#84D9FD" transform="translate(59,18)"/>
<path d="M0 0 C0.99 0 1.98 0 3 0 C3 0.99 3 1.98 3 3 C2.34 3 1.68 3 1 3 C1 7.29 1 11.58 1 16 C0.67 16 0.34 16 0 16 C-1.06795656 10.42289352 -0.82622671 5.60563042 0 0 Z " fill="#2E6BBE" transform="translate(12,47)"/>
<path d="M0 0 C0 3.23655184 -0.6550847 4.78752639 -2 7.6875 C-2.37125 8.49574219 -2.7425 9.30398437 -3.125 10.13671875 C-3.41375 10.75160156 -3.7025 11.36648437 -4 12 C-4.66 12 -5.32 12 -6 12 C-4.68139111 7.38486888 -2.78644563 3.90102388 0 0 Z " fill="#43B0E2" transform="translate(61,49)"/>
<path d="M0 0 C2.02045442 0.60183749 4.02111039 1.27306096 6 2 C6.33 2.66 6.66 3.32 7 4 C5.68 4 4.36 4 3 4 C0.79932579 4.93283296 0.79932579 4.93283296 -1 6 C-1.33 4.68 -1.66 3.36 -2 2 C-1.34 2 -0.68 2 0 2 C0 1.34 0 0.68 0 0 Z " fill="#3586DA" transform="translate(6,3)"/>
<path d="M0 0 C1.65 0 3.3 0 5 0 C4.01 0.495 4.01 0.495 3 1 C3.33 1.99 3.66 2.98 4 4 C2.0625 6.6875 2.0625 6.6875 0 9 C0 6.03 0 3.06 0 0 Z " fill="#3089DC" transform="translate(0,0)"/>
<path d="M0 0 C0.845625 0.309375 1.69125 0.61875 2.5625 0.9375 C6.0497854 2.01538821 9.38177535 2.56581304 13 3 C13 3.33 13 3.66 13 4 C8.71 4 4.42 4 0 4 C0 2.68 0 1.36 0 0 Z " fill="#2B6DC3" transform="translate(0,9)"/>
<path d="M0 0 C0.66 0.66 1.32 1.32 2 2 C0.68 3.32 -0.64 4.64 -2 6 C-2.66 5.67 -3.32 5.34 -4 5 C-4 3.68 -4 2.36 -4 1 C-2.125 0.375 -2.125 0.375 0 0 Z " fill="#3083D8" transform="translate(4,30)"/>
<path d="M0 0 C1.8125 0.125 1.8125 0.125 4 1 C5.75 4.0625 5.75 4.0625 7 7 C6.34 7 5.68 7 5 7 C4.67 6.34 4.34 5.68 4 5 C3.01 4.67 2.02 4.34 1 4 C0.3125 1.9375 0.3125 1.9375 0 0 Z " fill="#74D0FB" transform="translate(49,0)"/>
<path d="M0 0 C1.39195915 4.17587745 -0.17676781 6.13474776 -2 10 C-2.33 10 -2.66 10 -3 10 C-3.36923077 4.58461538 -3.36923077 4.58461538 -1.5 1.625 C-1.005 1.08875 -0.51 0.5525 0 0 Z " fill="#133177" transform="translate(18,31)"/>
<path d="M0 0 C-0.33 1.32 -0.66 2.64 -1 4 C-4 4 -4 4 -7 3 C-7 2.34 -7 1.68 -7 1 C-4 0 -4 0 0 0 Z " fill="#49A4E9" transform="translate(7,28)"/>
<path d="M0 0 C0.99 0 1.98 0 3 0 C2.33333333 3.33333333 1.66666667 6.66666667 1 10 C0.67 10 0.34 10 0 10 C0 6.7 0 3.4 0 0 Z " fill="#B0E8FD" transform="translate(61,20)"/>
<path d="M0 0 C0.66 0.99 1.32 1.98 2 3 C1.34 4.32 0.68 5.64 0 7 C-1.65 6.67 -3.3 6.34 -5 6 C-4.67 5.01 -4.34 4.02 -4 3 C-2.68 3 -1.36 3 0 3 C0 2.01 0 1.02 0 0 Z " fill="#42A0E6" transform="translate(10,20)"/>
<path d="M0 0 C0.99 0 1.98 0 3 0 C4.32 2.31 5.64 4.62 7 7 C6.01 7.495 6.01 7.495 5 8 C5 7.34 5 6.68 5 6 C4.34 6 3.68 6 3 6 C2.01 4.02 1.02 2.04 0 0 Z " fill="#3B9AD7" transform="translate(52,0)"/>
<path d="M0 0 C2.475 0.495 2.475 0.495 5 1 C5 1.99 5 2.98 5 4 C3.35 4 1.7 4 0 4 C0 2.68 0 1.36 0 0 Z " fill="#303A84" transform="translate(27,18)"/>
<path d="M0 0 C0.66 0 1.32 0 2 0 C2.66 1.98 3.32 3.96 4 6 C3.01 6 2.02 6 1 6 C1 5.34 1 4.68 1 4 C0.34 4 -0.32 4 -1 4 C-0.67 2.68 -0.34 1.36 0 0 Z " fill="#51B6F3" transform="translate(44,2)"/>
<path d="M0 0 C0.66 0 1.32 0 2 0 C3.125 4.75 3.125 4.75 2 7 C1.34 7 0.68 7 0 7 C0 4.69 0 2.38 0 0 Z " fill="#132F73" transform="translate(17,43)"/>
<path d="M0 0 C0.99 0.33 1.98 0.66 3 1 C2.01 1.495 2.01 1.495 1 2 C1 3.65 1 5.3 1 7 C0.01 7 -0.98 7 -2 7 C-1.34 4.69 -0.68 2.38 0 0 Z " fill="#4CA3E7" transform="translate(10,28)"/>
<path d="M0 0 C0.99 1.485 0.99 1.485 2 3 C2.66 3 3.32 3 4 3 C3.67 3.99 3.34 4.98 3 6 C2.34 6 1.68 6 1 6 C0.67 7.32 0.34 8.64 0 10 C0 6.7 0 3.4 0 0 Z " fill="#2560B2" transform="translate(13,29)"/>
<path d="M0 0 C0.99 0.33 1.98 0.66 3 1 C2.835 1.78375 2.67 2.5675 2.5 3.375 C1.9376293 5.88208039 1.9376293 5.88208039 2 8 C1.01 8 0.02 8 -1 8 C-0.67 5.36 -0.34 2.72 0 0 Z " fill="#3BABE8" transform="translate(17,12)"/>
</svg>
